<svg xmlns="http://www.w3.org/2000/svg" version="1.1" xmlns:xlink="http://www.w3.org/1999/xlink" viewBox="0 0 19.89702725198751 21.112940710038217"><g transform="matrix(0.8571428571428571,0,0,0.8571428571428571,5.1010861287839315,16.961481642438166)"><rect width="24.4291119187028" height="24.4291119187028" x="-6.559223879273274" y="-19.687069128006968" fill="#ffffff"></rect><g transform="matrix(1,0,0,1,0,0)" clip-path="url(#SvgjsClipPath45538)"><g clip-path="url(#SvgjsClipPath45533497405c0-1450-4cff-84fb-b7529ad6bc9d)"><path d=" M 8.925400307708458 -9.787901908848871 L 8.925400307708458 -11.114231388351783 C 8.920939802948713 -11.484412241667764 9.119114929236483 -11.827441832461858 9.442031703217895 -12.008490216453302 L 10.591131130001203 -12.671075773025958 C 11.080966522607868 -12.994284626265681 11.234467360102503 -13.643001008491467 10.941422484249433 -14.151456882092038 C 10.648377608396359 -14.65991275569261 10.010112460582418 -14.852300522366368 9.484891258450737 -14.590488827642844 L 8.336950198025066 -13.926744904712564 C 8.018384994682265 -13.738009602801638 7.622252610349008 -13.738009602801638 7.3036874070061995 -13.926744904712564 L 6.154587980222887 -14.590488827642844 C 5.6287328690255745 -14.859872934689418 4.984013171566743 -14.669490077997533 4.68884656674422 -14.157661912985919 C 4.393679961921704 -13.645833747974294 4.551809986233325 -12.992454825889443 5.048348108672421 -12.672234139383594 L 6.198605901813378 -12.008490216453325 C 6.52162789339361 -11.82712557180879 6.719452724759391 -11.483488280470034 6.714078930965167 -11.113073021994147 L 6.714078930965167 -9.786743542491237 C 6.747283249292849 -9.200173473195338 7.232778185582896 -8.741624647879387 7.820287230819419 -8.741932405367736 C 8.407796276055938 -8.74224016285606 8.89281053867559 -9.201297374342197 8.925400307708458 -9.787901908848871 Z" fill="#4caf7a" transform="matrix(1,0,0,1,0,0)" fill-rule="evenodd"></path></g><g clip-path="url(#SvgjsClipPath45533497405c0-1450-4cff-84fb-b7529ad6bc9d)"><path d=" M 7.827269000661504 -16.370897919342383 C 7.530188896852945 -16.37182100394129 7.2449098820357865 -16.254690931283562 7.034190814482098 -16.045275280642585 C 6.82347174692841 -15.835859630001604 6.704573859022819 -15.55131286325238 6.703653633746372 -15.254232750573111 C 6.702422496269632 -14.957259548245489 6.819294363685847 -14.6719773653692 7.0285261087725015 -14.461224724939232 C 7.237757853859161 -14.250472084509253 7.522186106137143 -14.131537116707062 7.819160436157986 -14.13061738365798 C 8.116240874769742 -14.129385967374825 8.40164257552753 -14.246221044403296 8.612579121275132 -14.4554196989398 C 8.823515667022734 -14.664618353476293 8.942707836393359 -14.949043726430979 8.943934169430772 -15.24612418606959 C 8.945857300972765 -15.864950851902634 8.446093383707701 -16.368343760268218 7.827269000661552 -16.370897919342383 Z" fill="#4caf7a" transform="matrix(1,0,0,1,0,0)" fill-rule="evenodd"></path></g><g clip-path="url(#SvgjsClipPath45533497405c0-1450-4cff-84fb-b7529ad6bc9d)"><path d=" M 8.647392381873784 -6.17032377392519 L 9.7964918086571 -6.832909330497834 C 10.114709908835065 -7.022907258295039 10.511536499497995 -7.022907258295039 10.829754599675963 -6.832909330497834 L 11.977695660101633 -6.17032377392519 C 12.503394288618919 -5.899292175018594 13.149281818481061 -6.088697897275175 13.445353109586568 -6.600712512509883 C 13.741424400692074 -7.112727127744579 13.583391095324108 -7.7669982514000715 13.08625226436739 -8.087420095826783 L 11.937152837584074 -8.753480751472358 C 11.613868126316717 -8.934156173552953 11.415554047586422 -9.277426282924672 11.420521442074644 -9.6477395795739 L 11.420521442074644 -10.975227425434458 C 11.393440592670844 -11.567146982517821 10.90566192396652 -12.033119569383008 10.31312320416653 -12.033119569383008 C 9.720584484366539 -12.033119569383008 9.232805815662214 -11.567146982517821 9.205724966258417 -10.975227425434458 L 9.205724966258417 -9.6477395795739 C 9.210612072183933 -9.277145731856045 9.012378231280856 -8.933570038990407 8.68909357074898 -8.752322385114722 L 7.5399941439656715 -8.08973682854209 C 7.009962864620144 -7.783937249149005 6.828187156218206 -7.106362461625103 7.133986735611279 -6.576331182279583 C 7.439786315004353 -6.046299902934063 8.117361102528259 -5.864524194532107 8.647392381873784 -6.17032377392519 Z" fill="#337551" transform="matrix(1,0,0,1,0,0)" fill-rule="evenodd"></path></g><g clip-path="url(#SvgjsClipPath45533497405c0-1450-4cff-84fb-b7529ad6bc9d)"><path d=" M 13.79748920796109 -10.41573647469217 C 13.650157358513686 -10.67363362853919 13.406337643770515 -10.86237541326025 13.119748720533918 -10.940378008743142 C 12.83315979729732 -11.018380604226035 12.527316998424514 -10.979243703802272 12.269603982228038 -10.831589997086555 C 11.732926604992024 -10.523888702070101 11.546841895232362 -9.839677512981655 11.853750459833673 -9.30254640499584 C 12.001305921021896 -9.044570166443236 12.245333023865475 -8.855806988466227 12.532110251204108 -8.777812272849136 C 12.818887478542745 -8.69981755723203 13.124904884005929 -8.738985296965001 13.382794051924373 -8.886692882601503 C 13.64057324017349 -9.034442746686203 13.829090256420931 -9.278555594311936 13.906863144774041 -9.56531596477592 C 13.984636033127154 -9.852076335239904 13.945292273869955 -10.157987787131274 13.79748920796109 -10.41573647469217 Z" fill="#337551" transform="matrix(1,0,0,1,0,0)" fill-rule="evenodd"></path></g><g clip-path="url(#SvgjsClipPath45533497405c0-1450-4cff-84fb-b7529ad6bc9d)"><path d=" M 5.373849055170517 -4.6053708247475065 L 6.522948481953829 -3.942785268174875 C 6.846602111218324 -3.761911418626111 7.044975266820389 -3.418094267773208 7.039579877463266 -3.0473680737157096 L 7.039579877463266 -1.7210385942127857 C 7.066660726867074 -1.1291190371294242 7.554439395571393 -0.663146450264259 8.146978115371377 -0.663146450264259 C 8.73951683517136 -0.663146450264259 9.227295503875679 -1.1291190371294242 9.254376353279486 -1.7210385942127857 L 9.254376353279486 -3.0462097073580736 C 9.24948924735397 -3.4168035550759033 9.447723088257046 -3.760379247941554 9.771007748788918 -3.941626901817239 L 10.921265541929879 -4.6053708247475065 C 11.418404372886599 -4.925792669174218 11.576437678254562 -5.580063792829723 11.280366387149057 -6.092078408064419 C 10.984295096043551 -6.604093023299127 10.33840756618141 -6.793498745555709 9.812708937664123 -6.522467146649111 L 8.662451144523166 -5.858723223718844 C 8.344233044345197 -5.668725295921629 7.947406453682264 -5.668725295921629 7.629188353504299 -5.858723223718844 L 6.4800889267209865 -6.522467146649111 C 5.953387894899979 -6.801730834639393 5.300132254116563 -6.6139175755776805 5.002174612790794 -6.097561663123075 C 4.704216971465022 -5.581205750668479 4.868501479525516 -4.921639716896221 5.373849055170517 -4.6053708247475065 Z" fill="#c8e5ce" transform="matrix(1,0,0,1,0,0)" fill-rule="evenodd"></path></g><g clip-path="url(#SvgjsClipPath45533497405c0-1450-4cff-84fb-b7529ad6bc9d)"><path d=" M 11.625552287377715 -2.266629148663327 C 11.775270953586183 -2.523249430212628 11.81678888864172 -2.8288763494087252 11.740953811713503 -3.116137013303005 C 11.665118734785281 -3.4033976771972956 11.478156882589834 -3.6487073151902187 11.221282428559794 -3.797989473469313 C 10.964662147010475 -3.9477081396778058 10.659035227814384 -3.9892260747333435 10.371774563920098 -3.913390997805106 C 10.084513900025813 -3.837555920876893 9.839204262032899 -3.6505940686814498 9.689922103753805 -3.3937196146514026 C 9.378807577089175 -2.8591934608757494 9.559781129903657 -2.173671865400843 10.094191962571724 -1.862359289845406 C 10.628718116347368 -1.5512447631807742 11.314239711822278 -1.732218315995265 11.625552287377715 -2.266629148663327 Z" fill="#c8e5ce" transform="matrix(1,0,0,1,0,0)" fill-rule="evenodd"></path></g><g clip-path="url(#SvgjsClipPath45533497405c0-1450-4cff-84fb-b7529ad6bc9d)"><path d=" M 2.381788753374856 -6.657996010493516 L 2.381788753374856 -5.331666530990605 C 2.386929610739881 -4.961006565383434 2.188626259575451 -4.617310398454956 1.8651573578654288 -4.43624933653145 L 0.7172162974397547 -3.7736637799587953 C 0.22067817500065567 -3.4534430934529468 0.06254815068903685 -2.8000641713680956 0.35771475551155385 -2.288236006356481 C 0.6528813603340771 -1.776407841344854 1.2976010577929045 -1.5860249846529815 1.8234561689902176 -1.8554090916995438 L 2.971397229415886 -2.5179946482721878 C 3.2891865395976527 -2.7080405888694283 3.685712343895341 -2.7080405888694283 4.003501654077105 -2.5179946482721878 L 5.153759447218065 -1.8542507253419203 C 5.678416259365605 -1.5942746336308726 6.3147870121467715 -1.7866681904563002 6.607533842914387 -2.293769395216918 C 6.9002806736819995 -2.8008705999775465 6.748659034912144 -3.448167977046193 6.261157685126182 -3.7725054136011362 L 5.110899891985224 -4.436249336531416 C 4.787615180717867 -4.616924758612024 4.589301101987575 -4.960194867983731 4.594268496475794 -5.330508164632958 L 4.594268496475794 -6.656837644135869 C 4.5675135676301775 -7.248143256526566 4.080492418920969 -7.713870362875332 3.488581904211375 -7.714180263668368 C 2.8966713895017824 -7.7144901644614166 2.409162835563394 -7.24927328308787 2.381788753374856 -6.657996010493516 Z" fill="#4caf7a" transform="matrix(1,0,0,1,0,0)" fill-rule="evenodd"></path></g><g clip-path="url(#SvgjsClipPath45533497405c0-1450-4cff-84fb-b7529ad6bc9d)"><path d=" M 3.4810784267794546 -0.07499999999999218 C 3.7781588653912017 -0.07376858371683781 4.063560566148991 -0.19060366074531032 4.274497111896592 -0.3998023152818142 C 4.485433657644194 -0.6090009698183074 4.604625827014818 -0.8934263427729938 4.6058521600522315 -1.1905068024116048 C 4.607775291594205 -1.8093334682446969 4.10801137432912 -2.312726376610245 3.489186991282976 -2.3152805356843977 C 3.1921068874744076 -2.316203620283302 2.9068278726572494 -2.199073547625579 2.696108805103564 -1.989657896984598 C 2.4853897375498732 -1.7802422463436187 2.366491849644282 -1.495695479594394 2.365571624367834 -1.198615366915126 C 2.364340486891103 -0.9016421645874786 2.481212354307327 -0.6163599817111916 2.6904440993939867 -0.40560734128122355 C 2.8996758444806465 -0.19485470085126977 3.184104096758632 -0.0759197330490764 3.481078426779475 -0.07499999999999218 Z" fill="#4caf7a" transform="matrix(1,0,0,1,0,0)" fill-rule="evenodd"></path></g><g clip-path="url(#SvgjsClipPath45533497405c0-1450-4cff-84fb-b7529ad6bc9d)"><path d=" M 2.6702219764283255 -10.275574145417185 L 1.5211225496450123 -9.611830222486905 C 1.2029044494670469 -9.421832294689702 0.8060778588041151 -9.421832294689702 0.48785975862615194 -9.611830222486905 L -0.6612396681571637 -10.275574145417185 C -1.1869382966744535 -10.546605744323783 -1.832825826536593 -10.3572000220672 -2.1288971176421017 -9.845185406832492 C -2.4249684087476098 -9.333170791597798 -2.266935103379643 -8.678899667942293 -1.769796272422925 -8.358477823515582 L -0.6218552119972571 -7.694733900585314 C -0.29801493838203585 -7.51462259297498 -0.09949021393153279 -7.170987868141381 -0.10522381648782364 -6.800475072483772 L -0.10522381648782364 -5.4729872266232125 C -0.07230747497898493 -4.885773905060498 0.41346007472968527 -4.42647355063607 1.0015952382414692 -4.42647355063607 C 1.5897304017532532 -4.42647355063607 2.075497951461923 -4.885773905060498 2.1084142929707586 -5.4729872266232125 L 2.1084142929707586 -6.8016334388414315 C 2.1032141130602087 -7.171701881401107 2.3010495659876407 -7.514913049176338 2.6238873221225534 -7.695892266942963 L 3.772986748905863 -8.35963618987324 C 4.274760776736108 -8.676395334290525 4.437242128792492 -9.332631856893219 4.14123161130849 -9.846919037479914 C 3.8452210938244864 -10.36120621806662 3.196164830543969 -10.550342492905859 2.6702219764283317 -10.275574145417185 Z" fill="#337551" transform="matrix(1,0,0,1,0,0)" fill-rule="evenodd"></path></g><g clip-path="url(#SvgjsClipPath45533497405c0-1450-4cff-84fb-b7529ad6bc9d)"><path d=" M -2.4868250478048477 -6.0301614446502185 C -2.179123752788423 -5.493484067414199 -1.4949125636999592 -5.307399357654525 -0.9577814557141457 -5.614307922255856 C -0.4212502156255864 -5.9215551392049 -0.235121479649135 -6.605409742973519 -0.5419279333197777 -7.142193147988911 C -0.6894833945080028 -7.40016938654154 -0.9335104973515838 -7.588932564518547 -1.220287724690215 -7.66692728013564 C -1.5070649520288522 -7.744921995752744 -1.8130823574920432 -7.705754256019775 -2.0709715254104797 -7.558046670383273 C -2.328868679257492 -7.41071482093586 -2.5176104639785466 -7.166895106192683 -2.5956130594614404 -6.88030618295609 C -2.673615654944334 -6.593717259719497 -2.634478754520577 -6.287874460846675 -2.4868250478048415 -6.030161444650195 Z" fill="#337551" transform="matrix(1,0,0,1,0,0)" fill-rule="evenodd"></path></g><g clip-path="url(#SvgjsClipPath45533497405c0-1450-4cff-84fb-b7529ad6bc9d)"><path d=" M 5.936815104985728 -11.839368728237222 L 4.7888740445600595 -12.503112651167502 C 4.4655893332927 -12.683788073248097 4.267275254562405 -13.027058182619806 4.272242649050627 -13.397371479269031 L 4.272242649050627 -14.723700958771943 C 4.245161799646815 -15.315620515855317 3.7573831309424968 -15.78159310272048 3.1648444111425134 -15.78159310272048 C 2.5723056913425326 -15.78159310272048 2.0845270226382144 -15.315620515855317 2.0574461732344025 -14.723700958771943 L 2.0574461732344025 -13.397371479269031 C 2.0629235848305685 -13.02692529474174 1.8644693735755196 -12.683412624138821 1.5408147777249717 -12.503112651167513 L 0.39171535094165355 -11.839368728237222 C -0.09853642273314067 -11.51588443116448 -0.25181559359169947 -10.86641231209203 0.04207227650024681 -10.357866530616306 C 0.33596014659219353 -9.849320749140592 0.9752167314839024 -9.657853894713671 1.5002719552074115 -9.921114039977994 L 2.650529748348366 -10.586016329265897 C 2.9686676642743963 -10.774795908394587 3.364496257083558 -10.774795908394587 3.682634173009591 -10.586016329265897 L 4.831733599792904 -9.92227240633563 C 5.361125131064383 -9.617112575016595 6.037662682021088 -9.798888283418538 6.342822513340115 -10.32827981469001 C 6.647982344659141 -10.857671345961496 6.466206636257207 -11.534208896918198 5.936815104985728 -11.839368728237222 Z" fill="#c8e5ce" transform="matrix(1,0,0,1,0,0)" fill-rule="evenodd"></path></g><g clip-path="url(#SvgjsClipPath45533497405c0-1450-4cff-84fb-b7529ad6bc9d)"><path d=" M -0.3148881272214643 -14.176952037963765 C -0.46419649227100157 -13.920118020776696 -0.5053624202919709 -13.614490660998408 -0.42932984183170086 -13.327304750357063 C -0.3532972633714371 -13.04011883971573 -0.16629439825033376 -12.794899254218617 0.0905400979540989 -12.645591713157769 C 0.6250662517297352 -12.334477186493135 1.3105878472046473 -12.515450739307617 1.6219004227600813 -13.049861571975677 C 1.9329219041768182 -13.58503994686741 1.7514481511074127 -14.271010733469751 1.2164721975845212 -14.582380263139322 C 0.9596381803974481 -14.731688628188854 0.6540108206191633 -14.772854556209824 0.36682490997781825 -14.69682197774956 C 0.07963899933647323 -14.620789399289295 -0.1655805861606332 -14.433786534168192 -0.3148881272214643 -14.176952037963765 Z" fill="#c8e5ce" transform="matrix(1,0,0,1,0,0)" fill-rule="evenodd"></path></g></g><g><path d=" M 0.92571533203125 0.19963623046875012 L 0.9193212890625 0.2024780273437501 Q 0.8639062500000001 0.1513256835937501 0.786112060546875 0.12077636718750018 Q 0.70831787109375 0.09022705078125015 0.6152490234375 0.09022705078125015 Q 0.525732421875 0.09022705078125015 0.45113525390625003 0.11828979492187508 Q 0.37653808593750004 0.14635253906250012 0.322899169921875 0.19963623046875012 Q 0.26926025390625 0.2529199218750001 0.23942138671875002 0.33035888671875013 Q 0.20958251953125 0.40779785156250015 0.20958251953125 0.5065502929687502 Q 0.20958251953125 0.6152490234375001 0.23800048828125 0.7093835449218752 Q 0.26641845703125 0.8035180664062502 0.3225439453125 0.8724316406250001 Q 0.37866943359375 0.9413452148437502 0.462857666015625 0.9807751464843751 Q 0.5470458984375001 1.0202050781250003 0.659296875 1.0202050781250003 Q 0.6997924804687501 1.0202050781250003 0.7402880859375001 1.0116796875000003 Q 0.78078369140625 1.0031542968750002 0.8180822753906251 0.9864587402343752 Q 0.8553808593750001 0.9697631835937501 0.8884167480468751 0.9459631347656252 Q 0.92145263671875 0.9221630859375002 0.9484497070312501 0.8916137695312502 L 0.9562646484375 0.8965869140625001 L 0.8994287109375001 1.0415185546875 Q 0.84614501953125 1.0621215820312502 0.7818493652343751 1.073133544921875 Q 0.7175537109375001 1.0841455078125002 0.6521923828125 1.0841455078125002 Q 0.52075927734375 1.0841455078125002 0.411705322265625 1.046136474609375 Q 0.3026513671875 1.0081274414062502 0.224146728515625 0.9385034179687501 Q 0.14564208984375002 0.8688793945312502 0.10194946289062501 0.7711926269531252 Q 0.0582568359375 0.6735058593750002 0.0582568359375 0.5541503906250002 Q 0.0582568359375 0.4866577148437502 0.075662841796875 0.42129638671875014 Q 0.09306884765625001 0.3559350585937502 0.1264599609375 0.29696777343750014 Q 0.15985107421875 0.2380004882812501 0.20887207031250002 0.18862426757812512 Q 0.25789306640625004 0.13924804687500014 0.320767822265625 0.10301513671875018 Q 0.383642578125 0.0667822265625001 0.459305419921875 0.046534423828125115 Q 0.53496826171875 0.026286621093750018 0.62306396484375 0.026286621093750018 Q 0.7601806640625001 0.026286621093750018 0.8774047851562501 0.06820312500000014 L 0.92571533203125 0.19963623046875012 M 1.0934666015624999 0.6969506835937502 Q 1.0934666015624999 0.6166699218750001 1.12330546875 0.5481115722656251 Q 1.1531443359375 0.4795532226562501 1.2053623535156248 0.4291113281250002 Q 1.2575803710937499 0.37866943359375016 1.3286252929687499 0.35025146484375014 Q 1.3996702148437499 0.3218334960937501 1.481371875 0.3218334960937501 Q 1.56165263671875 0.3218334960937501 1.6323423339843748 0.3484753417968751 Q 1.7030320312499998 0.3751171875000001 1.7556052734374998 0.4241381835937501 Q 1.8081785156249999 0.4731591796875001 1.838372607421875 0.5434936523437501 Q 1.86856669921875 0.6138281250000002 1.86856669921875 0.7012133789062502 Q 1.86856669921875 0.7743896484375001 1.84299052734375 0.8418823242187502 Q 1.8174143554687499 0.9093750000000002 1.76768291015625 0.9612377929687501 Q 1.71795146484375 1.0131005859375002 1.645840869140625 1.0440051269531252 Q 1.5737302734375 1.0749096679687502 1.4799509765624999 1.0749096679687502 Q 1.4003806640624998 1.0749096679687502 1.3300461914062498 1.0486230468750002 Q 1.25971171875 1.0223364257812502 1.2071384765625 0.9733154296875002 Q 1.154565234375 0.9242944335937502 1.12401591796875 0.8543151855468751 Q 1.0934666015624999 0.7843359375000002 1.0934666015624999 0.6969506835937502 M 1.49629130859375 1.0230468750000001 Q 1.546733203125 1.0230468750000001 1.589004931640625 1.0031542968750002 Q 1.6312766601562498 0.9832617187500001 1.6618259765625 0.9456079101562502 Q 1.69237529296875 0.9079541015625001 1.70942607421875 0.8539599609375002 Q 1.72647685546875 0.7999658203125002 1.72647685546875 0.7317626953125002 Q 1.72647685546875 0.6550341796875001 1.7101365234375 0.5893176269531252 Q 1.6937961914062498 0.5236010742187501 1.661470751953125 0.4756457519531252 Q 1.6291453125 0.42769042968750015 1.58012431640625 0.40069335937500017 Q 1.5311033203125 0.3736962890625002 1.4657419921875 0.3736962890625002 Q 1.41530009765625 0.3736962890625002 1.3733835937499999 0.3932336425781251 Q 1.33146708984375 0.4127709960937501 1.300562548828125 0.44971435546875016 Q 1.2696580078125 0.4866577148437502 1.2526072265625 0.5402966308593752 Q 1.2355564453124999 0.5939355468750002 1.2355564453124999 0.6621386718750002 Q 1.2355564453124999 0.7388671875000001 1.252252001953125 0.8049389648437502 Q 1.26894755859375 0.8710107421875002 1.30162822265625 0.9196765136718752 Q 1.33430888671875 0.9683422851562502 1.3829746582031248 0.9956945800781252 Q 1.4316404296875 1.0230468750000001 1.49629130859375 1.0230468750000001 M 2.5606294921875 0.5832788085937501 Q 2.5606294921875 0.5363891601562502 2.551038427734375 0.5022875976562502 Q 2.54144736328125 0.4681860351562501 2.523330908203125 0.44580688476562513 Q 2.5052144531250002 0.42342773437500014 2.4796382812499997 0.41241577148437514 Q 2.454062109375 0.40140380859375013 2.42280234375 0.40140380859375013 Q 2.4014888671875 0.40140380859375013 2.37520224609375 0.40992919921875015 Q 2.348915625 0.41845458984375017 2.320852880859375 0.4330187988281251 Q 2.29279013671875 0.44758300781250016 2.264727392578125 0.4667651367187502 Q 2.2366646484375 0.4859472656250001 2.21179892578125 0.5079711914062501 Q 2.21037802734375 0.5307055664062501 2.21037802734375 0.5566369628906251 Q 2.21037802734375 0.5825683593750002 2.21037802734375 0.6124072265625001 L 2.21037802734375 0.7843359375000002 Q 2.21037802734375 0.8447241210937502 2.21179892578125 0.8898376464843751 Q 2.21321982421875 0.9349511718750002 2.21606162109375 0.9676318359375001 Q 2.21890341796875 1.0003125000000002 2.2224556640625 1.0223364257812502 Q 2.22600791015625 1.0443603515625002 2.23027060546875 1.05927978515625 L 2.23027060546875 1.0621215820312502 L 2.0661568359375 1.0621215820312502 L 2.0661568359375 1.05927978515625 Q 2.07041953125 1.0443603515625002 2.074327001953125 1.0223364257812502 Q 2.07823447265625 1.0003125000000002 2.080721044921875 0.9676318359375001 Q 2.0832076171875 0.9349511718750002 2.084983740234375 0.8898376464843751 Q 2.08675986328125 0.8447241210937502 2.08675986328125 0.7843359375000002 L 2.08675986328125 0.6124072265625001 Q 2.08675986328125 0.5520190429687502 2.084983740234375 0.5069055175781252 Q 2.0832076171875 0.4617919921875001 2.080721044921875 0.4291113281250002 Q 2.07823447265625 0.39643066406250016 2.074327001953125 0.37440673828125015 Q 2.07041953125 0.35238281250000014 2.0661568359375 0.3374633789062501 L 2.0661568359375 0.33462158203125014 L 2.23027060546875 0.33462158203125014 L 2.23027060546875 0.3374633789062501 Q 2.22458701171875 0.3538037109375002 2.221389990234375 0.37902465820312514 Q 2.21819296875 0.4042456054687501 2.21464072265625 0.4426098632812502 Q 2.24305869140625 0.4198754882812501 2.27573935546875 0.3978515625000002 Q 2.30842001953125 0.3758276367187502 2.342876806640625 0.35877685546875016 Q 2.37733359375 0.3417260742187501 2.41214560546875 0.3310693359375001 Q 2.4469576171875 0.3204125976562502 2.4810591796875 0.3204125976562502 Q 2.52155478515625 0.3204125976562502 2.55281455078125 0.3310693359375001 Q 2.58407431640625 0.3417260742187501 2.607519140625 0.3601977539062502 Q 2.63096396484375 0.37866943359375016 2.646949072265625 0.40353515625000014 Q 2.6629341796875 0.4284008789062501 2.6714595703125 0.45681884765625014 Q 2.7005879882812502 0.43195312500000016 2.735044775390625 0.40744262695312516 Q 2.7695015625 0.38293212890625017 2.806089697265625 0.36375000000000013 Q 2.8426778320312502 0.3445678710937501 2.880686865234375 0.33249023437500014 Q 2.9186958984375 0.3204125976562502 2.95492880859375 0.3204125976562502 Q 3.01034384765625 0.3204125976562502 3.049063330078125 0.3395947265625001 Q 3.0877828125 0.35877685546875016 3.112293310546875 0.39003662109375015 Q 3.1368038085937497 0.42129638671875014 3.147815771484375 0.46143676757812513 Q 3.158827734375 0.5015771484375001 3.158827734375 0.5427832031250002 L 3.158827734375 0.7843359375000002 Q 3.158827734375 0.8447241210937502 3.1602486328125003 0.8898376464843751 Q 3.1616695312500003 0.9349511718750002 3.164511328125 0.9676318359375001 Q 3.167353125 1.0003125000000002 3.1712605957031252 1.0223364257812502 Q 3.17516806640625 1.0443603515625002 3.1794307617187503 1.05927978515625 L 3.1794307617187503 1.0621215820312502 L 3.01460654296875 1.0621215820312502 L 3.01460654296875 1.05927978515625 Q 3.0188692382812503 1.0443603515625002 3.022776708984375 1.0223364257812502 Q 3.0266841796875 1.0003125000000002 3.0295259765625 0.9676318359375001 Q 3.0323677734375 0.9349511718750002 3.033788671875 0.8898376464843751 Q 3.0352095703125 0.8447241210937502 3.0352095703125 0.7843359375000002 L 3.0352095703125 0.5832788085937501 Q 3.0352095703125 0.48949951171875017 2.99755576171875 0.44545166015625015 Q 2.959901953125 0.40140380859375013 2.89667197265625 0.40140380859375013 Q 2.874648046875 0.40140380859375013 2.848006201171875 0.40992919921875015 Q 2.82136435546875 0.41845458984375017 2.79294638671875 0.4333740234375002 Q 2.76452841796875 0.4482934570312501 2.7361104492187502 0.46783081054687514 Q 2.70769248046875 0.48736816406250016 2.6828267578125002 0.5093920898437502 Q 2.68424765625 0.5179174804687502 2.68424765625 0.5264428710937501 Q 2.68424765625 0.5349682617187501 2.68424765625 0.5427832031250002 L 2.68424765625 0.7843359375000002 Q 2.68424765625 0.8447241210937502 2.686023779296875 0.8898376464843751 Q 2.68779990234375 0.9349511718750002 2.690286474609375 0.9676318359375001 Q 2.692773046875 1.0003125000000002 2.696680517578125 1.0223364257812502 Q 2.7005879882812502 1.0443603515625002 2.70485068359375 1.05927978515625 L 2.70485068359375 1.0621215820312502 L 2.5407369140625002 1.0621215820312502 L 2.5407369140625002 1.05927978515625 Q 2.544999609375 1.0443603515625002 2.54855185546875 1.0223364257812502 Q 2.5521041015625 1.0003125000000002 2.5549458984375 0.9676318359375001 Q 2.5577876953125003 0.9349511718750002 2.55920859375 0.8898376464843751 Q 2.5606294921875 0.8447241210937502 2.5606294921875 0.7843359375000002 L 2.5606294921875 0.5832788085937501 M 3.9055951171875 0.5832788085937501 Q 3.9055951171875 0.5363891601562502 3.896004052734375 0.5022875976562502 Q 3.8864129882812497 0.4681860351562501 3.868296533203125 0.44580688476562513 Q 3.8501800781249997 0.42342773437500014 3.82460390625 0.41241577148437514 Q 3.799027734375 0.40140380859375013 3.76776796875 0.40140380859375013 Q 3.7464544921875 0.40140380859375013 3.72016787109375 0.40992919921875015 Q 3.69388125 0.41845458984375017 3.665818505859375 0.4330187988281251 Q 3.6377557617187497 0.44758300781250016 3.6096930175781248 0.4667651367187502 Q 3.5816302734375 0.4859472656250001 3.5567645507812498 0.5079711914062501 Q 3.55534365234375 0.5307055664062501 3.55534365234375 0.5566369628906251 Q 3.55534365234375 0.5825683593750002 3.55534365234375 0.6124072265625001 L 3.55534365234375 0.7843359375000002 Q 3.55534365234375 0.8447241210937502 3.5567645507812498 0.8898376464843751 Q 3.55818544921875 0.9349511718750002 3.56102724609375 0.9676318359375001 Q 3.56386904296875 1.0003125000000002 3.5674212890625 1.0223364257812502 Q 3.57097353515625 1.0443603515625002 3.57523623046875 1.05927978515625 L 3.57523623046875 1.0621215820312502 L 3.4111224609375 1.0621215820312502 L 3.4111224609375 1.05927978515625 Q 3.41538515625 1.0443603515625002 3.419292626953125 1.0223364257812502 Q 3.4232000976562498 1.0003125000000002 3.425686669921875 0.9676318359375001 Q 3.4281732421875 0.9349511718750002 3.429949365234375 0.8898376464843751 Q 3.43172548828125 0.8447241210937502 3.43172548828125 0.7843359375000002 L 3.43172548828125 0.6124072265625001 Q 3.43172548828125 0.5520190429687502 3.429949365234375 0.5069055175781252 Q 3.4281732421875 0.4617919921875001 3.425686669921875 0.4291113281250002 Q 3.4232000976562498 0.39643066406250016 3.419292626953125 0.37440673828125015 Q 3.41538515625 0.35238281250000014 3.4111224609375 0.3374633789062501 L 3.4111224609375 0.33462158203125014 L 3.57523623046875 0.33462158203125014 L 3.57523623046875 0.3374633789062501 Q 3.56955263671875 0.3538037109375002 3.566355615234375 0.37902465820312514 Q 3.56315859375 0.4042456054687501 3.55960634765625 0.4426098632812502 Q 3.58802431640625 0.4198754882812501 3.62070498046875 0.3978515625000002 Q 3.65338564453125 0.3758276367187502 3.687842431640625 0.35877685546875016 Q 3.72229921875 0.3417260742187501 3.75711123046875 0.3310693359375001 Q 3.7919232421875 0.3204125976562502 3.8260248046875 0.3204125976562502 Q 3.86652041015625 0.3204125976562502 3.89778017578125 0.3310693359375001 Q 3.9290399414062502 0.3417260742187501 3.952484765625 0.3601977539062502 Q 3.97592958984375 0.37866943359375016 3.991914697265625 0.40353515625000014 Q 4.0078998046875 0.4284008789062501 4.0164251953125 0.45681884765625014 Q 4.04555361328125 0.43195312500000016 4.080010400390625 0.40744262695312516 Q 4.1144671875 0.38293212890625017 4.151055322265625 0.36375000000000013 Q 4.18764345703125 0.3445678710937501 4.225652490234375 0.33249023437500014 Q 4.2636615234375 0.3204125976562502 4.29989443359375 0.3204125976562502 Q 4.35530947265625 0.3204125976562502 4.3940289550781255 0.3395947265625001 Q 4.4327484375 0.35877685546875016 4.457258935546875 0.39003662109375015 Q 4.48176943359375 0.42129638671875014 4.492781396484375 0.46143676757812513 Q 4.503793359375 0.5015771484375001 4.503793359375 0.5427832031250002 L 4.503793359375 0.7843359375000002 Q 4.503793359375 0.8447241210937502 4.5052142578125 0.8898376464843751 Q 4.50663515625 0.9349511718750002 4.5094769531250005 0.9676318359375001 Q 4.51231875 1.0003125000000002 4.516226220703125 1.0223364257812502 Q 4.52013369140625 1.0443603515625002 4.52439638671875 1.05927978515625 L 4.52439638671875 1.0621215820312502 L 4.35957216796875 1.0621215820312502 L 4.35957216796875 1.05927978515625 Q 4.36383486328125 1.0443603515625002 4.367742333984375 1.0223364257812502 Q 4.3716498046875 1.0003125000000002 4.3744916015625 0.9676318359375001 Q 4.3773333984375 0.9349511718750002 4.378754296875 0.8898376464843751 Q 4.3801751953125 0.8447241210937502 4.3801751953125 0.7843359375000002 L 4.3801751953125 0.5832788085937501 Q 4.3801751953125 0.48949951171875017 4.34252138671875 0.44545166015625015 Q 4.304867578125 0.40140380859375013 4.24163759765625 0.40140380859375013 Q 4.219613671875 0.40140380859375013 4.192971826171875 0.40992919921875015 Q 4.16632998046875 0.41845458984375017 4.1379120117187504 0.4333740234375002 Q 4.10949404296875 0.4482934570312501 4.08107607421875 0.46783081054687514 Q 4.05265810546875 0.48736816406250016 4.0277923828125 0.5093920898437502 Q 4.02921328125 0.5179174804687502 4.02921328125 0.5264428710937501 Q 4.02921328125 0.5349682617187501 4.02921328125 0.5427832031250002 L 4.02921328125 0.7843359375000002 Q 4.02921328125 0.8447241210937502 4.030989404296875 0.8898376464843751 Q 4.03276552734375 0.9349511718750002 4.035252099609375 0.9676318359375001 Q 4.037738671875 1.0003125000000002 4.041646142578125 1.0223364257812502 Q 4.04555361328125 1.0443603515625002 4.0498163085937495 1.05927978515625 L 4.0498163085937495 1.0621215820312502 L 3.8857025390624997 1.0621215820312502 L 3.8857025390624997 1.05927978515625 Q 3.889965234375 1.0443603515625002 3.8935174804687502 1.0223364257812502 Q 3.8970697265625 1.0003125000000002 3.8999115234375 0.9676318359375001 Q 3.9027533203124998 0.9349511718750002 3.9041742187499997 0.8898376464843751 Q 3.9055951171875 0.8447241210937502 3.9055951171875 0.7843359375000002 L 3.9055951171875 0.5832788085937501 M 4.89604658203125 0.8134643554687502 Q 4.89604658203125 0.9072436523437502 4.933345166015625 0.9512915039062502 Q 4.97064375 0.9953393554687502 5.03387373046875 0.9953393554687502 Q 5.05660810546875 0.9953393554687502 5.08502607421875 0.9857482910156252 Q 5.11344404296875 0.9761572265625001 5.143638134765625 0.9601721191406252 Q 5.173832226562499 0.9441870117187502 5.204026318359375 0.9228735351562501 Q 5.23422041015625 0.9015600585937502 5.25979658203125 0.8774047851562502 Q 5.2612174804687495 0.8568017578125002 5.2612174804687495 0.8337121582031252 Q 5.2612174804687495 0.8106225585937501 5.2612174804687495 0.7843359375000002 L 5.2612174804687495 0.6124072265625001 Q 5.2612174804687495 0.5520190429687502 5.259441357421875 0.5069055175781252 Q 5.257665234375 0.4617919921875001 5.255178662109375 0.4291113281250002 Q 5.25269208984375 0.39643066406250016 5.248784619140625 0.37440673828125015 Q 5.244877148437499 0.35238281250000014 5.240614453125 0.3374633789062501 L 5.240614453125 0.33462158203125014 L 5.404728222656249 0.33462158203125014 L 5.404728222656249 0.3374633789062501 Q 5.40046552734375 0.35238281250000014 5.39691328125 0.37440673828125015 Q 5.39336103515625 0.39643066406250016 5.39051923828125 0.4291113281250002 Q 5.38767744140625 0.4617919921875001 5.38625654296875 0.5069055175781252 Q 5.38483564453125 0.5520190429687502 5.38483564453125 0.6124072265625001 L 5.38483564453125 0.7843359375000002 Q 5.38483564453125 0.8447241210937502 5.38625654296875 0.8898376464843751 Q 5.38767744140625 0.9349511718750002 5.39051923828125 0.9676318359375001 Q 5.39336103515625 1.0003125000000002 5.39691328125 1.0223364257812502 Q 5.40046552734375 1.0443603515625002 5.404728222656249 1.05927978515625 L 5.404728222656249 1.0621215820312502 L 5.240614453125 1.0621215820312502 L 5.240614453125 1.05927978515625 Q 5.244877148437499 1.0415185546875 5.249495068359375 1.0138110351562502 Q 5.25411298828125 0.9861035156250002 5.2562443359375 0.9413452148437502 Q 5.227115917968749 0.9662109375000002 5.193369580078125 0.9903662109375002 Q 5.1596232421875 1.0145214843750001 5.123035107421875 1.0337036132812503 Q 5.08644697265625 1.0528857421875002 5.049148388671875 1.0646081542968753 Q 5.0118498046874995 1.0763305664062501 4.97561689453125 1.0763305664062501 Q 4.92020185546875 1.0763305664062501 4.881482373046875 1.0571484375000002 Q 4.842762890625 1.0379663085937503 4.818252392578125 1.0067065429687503 Q 4.79374189453125 0.9754467773437502 4.782729931640625 0.9356616210937502 Q 4.77171796875 0.8958764648437502 4.77171796875 0.8539599609375002 L 4.77171796875 0.6124072265625001 Q 4.77171796875 0.5520190429687502 4.7702970703125 0.5069055175781252 Q 4.768876171875 0.4617919921875001 4.766034375 0.4291113281250002 Q 4.7631925781249995 0.39643066406250016 4.75964033203125 0.37440673828125015 Q 4.7560880859375 0.35238281250000014 4.751825390625 0.3374633789062501 L 4.751825390625 0.33462158203125014 L 4.91593916015625 0.33462158203125014 L 4.91593916015625 0.3374633789062501 Q 4.91167646484375 0.35238281250000014 4.90812421875 0.37440673828125015 Q 4.90457197265625 0.39643066406250016 4.90173017578125 0.4291113281250002 Q 4.89888837890625 0.4617919921875001 4.89746748046875 0.5069055175781252 Q 4.89604658203125 0.5520190429687502 4.89604658203125 0.6124072265625001 L 4.89604658203125 0.8134643554687502 M 6.15078515625 0.5832788085937501 Q 6.15078515625 0.48949951171875017 6.1131313476562505 0.44545166015625015 Q 6.075477539062501 0.40140380859375013 6.01224755859375 0.40140380859375013 Q 5.9895131835937505 0.40140380859375013 5.96109521484375 0.4109948730468751 Q 5.93267724609375 0.4205859375000002 5.90283837890625 0.43657104492187515 Q 5.87299951171875 0.45255615234375013 5.84316064453125 0.4738696289062502 Q 5.81332177734375 0.4951831054687501 5.78703515625 0.5193383789062501 L 5.7856142578125 0.6124072265625001 L 5.7856142578125 0.7843359375000002 Q 5.7856142578125 0.8447241210937502 5.78703515625 0.8898376464843751 Q 5.7884560546875 0.9349511718750002 5.7912978515625 0.9676318359375001 Q 5.7941396484375005 1.0003125000000002 5.79769189453125 1.0223364257812502 Q 5.801244140625 1.0443603515625002 5.8055068359375 1.05927978515625 L 5.8055068359375 1.0621215820312502 L 5.64139306640625 1.0621215820312502 L 5.64139306640625 1.05927978515625 Q 5.64565576171875 1.0443603515625002 5.649563232421875 1.0223364257812502 Q 5.653470703125 1.0003125000000002 5.655957275390625 0.9676318359375001 Q 5.65844384765625 0.9349511718750002 5.6602199707031255 0.8898376464843751 Q 5.66199609375 0.8447241210937502 5.66199609375 0.7843359375000002 L 5.66199609375 0.6124072265625001 Q 5.66199609375 0.5520190429687502 5.6602199707031255 0.5069055175781252 Q 5.65844384765625 0.4617919921875001 5.655957275390625 0.4291113281250002 Q 5.653470703125 0.39643066406250016 5.649563232421875 0.37440673828125015 Q 5.64565576171875 0.35238281250000014 5.64139306640625 0.3374633789062501 L 5.64139306640625 0.33462158203125014 L 5.8055068359375 0.33462158203125014 L 5.8055068359375 0.3374633789062501 Q 5.7998232421875 0.3552246093750001 5.796626220703125 0.3825769042968752 Q 5.7934291992187505 0.40992919921875015 5.789876953125 0.45397705078125017 Q 5.81900537109375 0.42982177734375016 5.852751708984375 0.40566650390625014 Q 5.886498046875 0.38151123046875013 5.92273095703125 0.3626843261718752 Q 5.9589638671875 0.3438574218750001 5.99661767578125 0.33213500976562516 Q 6.034271484375 0.3204125976562502 6.07050439453125 0.3204125976562502 Q 6.12591943359375 0.3204125976562502 6.164638916015625 0.3395947265625001 Q 6.2033583984375005 0.35877685546875016 6.227868896484376 0.39003662109375015 Q 6.25237939453125 0.42129638671875014 6.263391357421876 0.46143676757812513 Q 6.2744033203125005 0.5015771484375001 6.2744033203125005 0.5427832031250002 L 6.2744033203125005 0.7843359375000002 Q 6.2744033203125005 0.8447241210937502 6.27582421875 0.8898376464843751 Q 6.2772451171875 0.9349511718750002 6.2800869140625 0.9676318359375001 Q 6.2829287109375 1.0003125000000002 6.28648095703125 1.0223364257812502 Q 6.290033203125001 1.0443603515625002 6.2942958984375 1.05927978515625 L 6.2942958984375 1.0621215820312502 L 6.130182128906251 1.0621215820312502 L 6.130182128906251 1.05927978515625 Q 6.13444482421875 1.0443603515625002 6.138352294921875 1.0223364257812502 Q 6.142259765625 1.0003125000000002 6.144746337890625 0.9676318359375001 Q 6.14723291015625 0.9349511718750002 6.149009033203125 0.8898376464843751 Q 6.15078515625 0.8447241210937502 6.15078515625 0.7843359375000002 L 6.15078515625 0.5832788085937501 M 6.55156376953125 0.6124072265625001 Q 6.55156376953125 0.5520190429687502 6.549787646484376 0.5069055175781252 Q 6.5480115234375 0.4617919921875001 6.545524951171876 0.4291113281250002 Q 6.5430383789062505 0.39643066406250016 6.539130908203125 0.37440673828125015 Q 6.5352234375 0.35238281250000014 6.5309607421875 0.3374633789062501 L 6.5309607421875 0.33462158203125014 L 6.695074511718751 0.33462158203125014 L 6.695074511718751 0.3374633789062501 Q 6.69081181640625 0.35238281250000014 6.6872595703125 0.37440673828125015 Q 6.683707324218751 0.39643066406250016 6.680865527343751 0.4291113281250002 Q 6.678023730468751 0.4617919921875001 6.67660283203125 0.5069055175781252 Q 6.67518193359375 0.5520190429687502 6.67518193359375 0.6124072265625001 L 6.67518193359375 0.7843359375000002 Q 6.67518193359375 0.8447241210937502 6.67660283203125 0.8898376464843751 Q 6.678023730468751 0.9349511718750002 6.680865527343751 0.9676318359375001 Q 6.683707324218751 1.0003125000000002 6.6872595703125 1.0223364257812502 Q 6.69081181640625 1.0443603515625002 6.695074511718751 1.05927978515625 L 6.695074511718751 1.0621215820312502 L 6.5309607421875 1.0621215820312502 L 6.5309607421875 1.05927978515625 Q 6.5352234375 1.0443603515625002 6.539130908203125 1.0223364257812502 Q 6.5430383789062505 1.0003125000000002 6.545524951171876 0.9676318359375001 Q 6.5480115234375 0.9349511718750002 6.549787646484376 0.8898376464843751 Q 6.55156376953125 0.8447241210937502 6.55156376953125 0.7843359375000002 L 6.55156376953125 0.6124072265625001 M 6.536644335937501 0.11935546875000014 Q 6.536644335937501 0.10372558593750014 6.542683154296875 0.08987182617187517 Q 6.54872197265625 0.07601806640625008 6.558668261718751 0.06571655273437516 Q 6.56861455078125 0.055415039062500115 6.582468310546876 0.049376220703125195 Q 6.5963220703125005 0.04333740234375005 6.612662402343751 0.04333740234375005 Q 6.629002734375001 0.04333740234375005 6.642856494140625 0.049376220703125195 Q 6.65671025390625 0.055415039062500115 6.667011767578125 0.06571655273437516 Q 6.677313281250001 0.07601806640625008 6.683352099609375 0.08987182617187517 Q 6.68939091796875 0.10372558593750014 6.68939091796875 0.11935546875000014 Q 6.68939091796875 0.15203613281250017 6.6673669921875005 0.17406005859375018 Q 6.645343066406251 0.1960839843750002 6.612662402343751 0.1960839843750002 Q 6.5963220703125005 0.1960839843750002 6.582468310546876 0.19004516601562516 Q 6.56861455078125 0.18400634765625012 6.558668261718751 0.17370483398437508 Q 6.54872197265625 0.16340332031250016 6.542683154296875 0.14954956054687518 Q 6.536644335937501 0.1356958007812501 6.536644335937501 0.11935546875000014 M 7.214498144531251 1.0202050781250003 Q 7.235811621093751 1.0202050781250003 7.256769873046876 1.0123901367187502 Q 7.277728125 1.0045751953125002 7.297265478515626 0.9910766601562502 Q 7.31680283203125 0.9775781250000002 7.334919287109376 0.9601721191406252 Q 7.353035742187501 0.9427661132812502 7.368665625 0.9235839843750002 L 7.375770117187501 0.9271362304687502 L 7.32959091796875 1.0415185546875 Q 7.321065527343751 1.04578125 7.308632666015625 1.0518200683593752 Q 7.2961998046875 1.0578588867187502 7.278793798828126 1.0631872558593751 Q 7.26138779296875 1.068515625 7.2379429687500005 1.072423095703125 Q 7.214498144531251 1.0763305664062501 7.182527929687501 1.0763305664062501 Q 7.087327734375 1.0763305664062501 7.0343992675781255 1.0248229980468753 Q 6.981470800781251 0.9733154296875002 6.981470800781251 0.8639062500000002 L 6.981470800781251 0.39003662109375015 L 6.862115332031251 0.39429931640625016 L 6.862115332031251 0.3317797851562502 Q 6.8841392578125005 0.3332006835937501 6.914688574218751 0.3339111328125002 Q 6.945237890625 0.33462158203125014 6.981470800781251 0.33462158203125014 Q 6.9807603515625 0.2841796875000001 6.978984228515626 0.24546020507812516 Q 6.97720810546875 0.2067407226562501 6.974721533203126 0.1779675292968751 Q 6.9722349609375005 0.1491943359375001 6.968682714843751 0.12930175781250008 Q 6.965130468750001 0.10940917968750008 6.96157822265625 0.09591064453125009 L 6.96157822265625 0.09306884765625012 L 7.125691992187501 0.09306884765625012 L 7.125691992187501 0.09591064453125009 Q 7.121429296875 0.10940917968750008 7.11787705078125 0.12930175781250008 Q 7.1143248046875005 0.1491943359375001 7.111838232421875 0.1776123046875001 Q 7.109351660156251 0.20603027343750013 7.107575537109375 0.24474975585937508 Q 7.105799414062501 0.28346923828125015 7.10508896484375 0.33462158203125014 Q 7.1498472656250005 0.3339111328125002 7.192829443359376 0.3328454589843751 Q 7.235811621093751 0.3317797851562502 7.270978857421875 0.33000366210937515 Q 7.306146093750001 0.32822753906250013 7.330656591796876 0.3264514160156251 Q 7.355167089843751 0.3246752929687502 7.3629820312500005 0.32325439453125016 L 7.3501939453125 0.3957202148437502 Q 7.31396103515625 0.3950097656250001 7.2741758789062505 0.3935888671875002 Q 7.24007431640625 0.39216796875000015 7.196026464843751 0.3914575195312502 Q 7.15197861328125 0.3907470703125001 7.10508896484375 0.39003662109375015 L 7.10508896484375 0.8788256835937501 Q 7.10508896484375 0.9228735351562501 7.114680029296876 0.9502258300781252 Q 7.124271093750001 0.9775781250000002 7.139545751953126 0.9932080078125002 Q 7.15482041015625 1.0088378906250002 7.174357763671876 1.0145214843750001 Q 7.1938951171875 1.0202050781250003 7.214498144531251 1.0202050781250003 M 7.802835351562501 1.0535961914062502 L 7.552757226562501 0.5065502929687502 Q 7.539258691406251 0.4752905273437501 7.523628808593751 0.4465173339843751 Q 7.5079989257812505 0.4177441406250001 7.494145166015626 0.3950097656250001 Q 7.480291406250001 0.37227539062500015 7.469634667968751 0.35700073242187513 Q 7.458977929687501 0.3417260742187501 7.4554256835937505 0.3374633789062501 L 7.4554256835937505 0.33462158203125014 L 7.641563378906251 0.33462158203125014 L 7.641563378906251 0.3374633789062501 Q 7.640142480468751 0.34101562500000016 7.639432031250001 0.34812011718750013 Q 7.638721582031251 0.3552246093750001 7.638721582031251 0.36090820312500016 Q 7.638721582031251 0.38293212890625017 7.645470849609376 0.40957397460937517 Q 7.652220117187501 0.43621582031250017 7.670691796875001 0.4760009765625002 L 7.866775781250001 0.9022705078125002 L 8.045808984375 0.4816845703125001 Q 8.057176171875001 0.4553979492187501 8.068898583984376 0.4241381835937501 Q 8.080620996093751 0.3928784179687501 8.080620996093751 0.36090820312500016 Q 8.080620996093751 0.3516723632812502 8.079200097656251 0.34563354492187515 Q 8.077779199218751 0.3395947265625001 8.076358300781251 0.3374633789062501 L 8.076358300781251 0.33462158203125014 L 8.20423916015625 0.33462158203125014 L 8.20423916015625 0.3374633789062501 Q 8.191451074218751 0.3509619140625001 8.171913720703126 0.38541870117187516 Q 8.1523763671875 0.4198754882812501 8.13035244140625 0.47173828125000017 L 7.7914681640625005 1.2788085937500002 Q 7.780100976562501 1.3050952148437502 7.768378564453126 1.3363549804687502 Q 7.7566561523437505 1.3676147460937502 7.7566561523437505 1.3995849609375002 Q 7.7566561523437505 1.4088208007812502 7.758077050781251 1.4148596191406253 Q 7.759497949218751 1.4208984375000002 7.760918847656251 1.4230297851562501 L 7.760918847656251 1.4258715820312502 L 7.628064843750001 1.4258715820312502 L 7.628064843750001 1.4230297851562501 Q 7.641563378906251 1.4095312500000001 7.661100732421876 1.3757849121093753 Q 7.680638085937501 1.3420385742187502 7.7026620117187505 1.2908862304687503 L 7.802835351562501 1.0535961914062502 M 9.251526562500002 0.9427661132812502 Q 9.251526562500002 0.9505810546875002 9.249750439453127 0.9591064453125002 Q 9.247974316406252 0.9676318359375001 9.241580273437501 0.9733154296875002 Q 9.209610058593752 0.9974707031250002 9.172311474609376 1.0177185058593752 Q 9.135012890625001 1.0379663085937503 9.091675488281252 1.0528857421875002 Q 9.048338085937502 1.0678051757812501 8.998251416015627 1.0759753417968752 Q 8.948164746093752 1.0841455078125002 8.890618359375 1.0841455078125002 Q 8.761316601562502 1.0841455078125002 8.654749218750002 1.046136474609375 Q 8.548181835937502 1.0081274414062502 8.471808544921876 0.9385034179687501 Q 8.395435253906252 0.8688793945312502 8.353518750000001 0.7711926269531252 Q 8.311602246093752 0.6735058593750002 8.311602246093752 0.5541503906250002 Q 8.311602246093752 0.4866577148437502 8.329008251953127 0.42129638671875014 Q 8.346414257812501 0.3559350585937502 8.379805371093752 0.29696777343750014 Q 8.413196484375002 0.2380004882812501 8.462217480468752 0.18862426757812512 Q 8.511238476562502 0.13924804687500014 8.574113232421876 0.10301513671875018 Q 8.636987988281252 0.0667822265625001 8.712650830078127 0.046534423828125115 Q 8.788313671875002 0.026286621093750018 8.876409375000001 0.026286621093750018 Q 8.910510937500002 0.026286621093750018 8.946033398437502 0.02948364257812508 Q 8.981555859375002 0.03268066406250014 9.016367871093752 0.03871948242187506 Q 9.051179882812502 0.044758300781250204 9.083505322265626 0.05328369140625022 Q 9.115830761718751 0.06180908203125002 9.144959179687502 0.07246582031250015 L 9.193269726562502 0.20389892578125013 L 9.187586132812502 0.2067407226562501 Q 9.159878613281252 0.18187500000000012 9.123645703125002 0.1605615234375002 Q 9.087412792968752 0.13924804687500014 9.046206738281251 0.12361816406250015 Q 9.005000683593751 0.10798828125000015 8.959887158203127 0.09910766601562515 Q 8.914773632812501 0.09022705078125015 8.868594433593751 0.09022705078125015 Q 8.779077832031252 0.09022705078125015 8.704480664062501 0.11828979492187508 Q 8.629883496093752 0.14635253906250012 8.576244580078127 0.19963623046875012 Q 8.522605664062501 0.2529199218750001 8.492766796875001 0.33035888671875013 Q 8.4629279296875 0.40779785156250015 8.4629279296875 0.5065502929687502 Q 8.4629279296875 0.6152490234375001 8.491345898437501 0.7083178710937501 Q 8.519763867187502 0.8013867187500001 8.575889355468751 0.8695898437500001 Q 8.632014843750001 0.9377929687500002 8.716203076171876 0.9765124511718751 Q 8.80039130859375 1.01523193359375 8.912642285156252 1.01523193359375 Q 8.962373730468752 1.01523193359375 9.001448437500002 1.0074169921875002 Q 9.040523144531251 0.9996020507812502 9.067520214843752 0.9878796386718751 Q 9.094517285156252 0.9761572265625001 9.108371044921876 0.9623034667968752 Q 9.122224804687502 0.9484497070312502 9.122224804687502 0.9370825195312502 L 9.122224804687502 0.9093750000000002 Q 9.122224804687502 0.8596435546875002 9.120803906250002 0.8234106445312501 Q 9.119383007812502 0.7871777343750002 9.116541210937502 0.7605358886718752 Q 9.113699414062502 0.7338940429687502 9.110147167968751 0.7147119140625002 Q 9.106594921875002 0.6955297851562501 9.101621777343752 0.6791894531250002 L 9.101621777343752 0.6763476562500002 L 9.272129589843752 0.6763476562500002 L 9.272129589843752 0.6791894531250002 Q 9.267866894531252 0.6941088867187502 9.263959423828126 0.7143566894531251 Q 9.260051953125002 0.7346044921875001 9.257210156250002 0.7623120117187502 Q 9.254368359375002 0.7900195312500002 9.252947460937502 0.8273181152343752 Q 9.251526562500002 0.8646166992187502 9.251526562500002 0.9136376953125002 L 9.251526562500002 0.9427661132812502 M 9.501689941406251 0.6124072265625001 Q 9.501689941406251 0.5520190429687502 9.499913818359376 0.5069055175781252 Q 9.4981376953125 0.4617919921875001 9.495651123046876 0.4291113281250002 Q 9.493164550781252 0.39643066406250016 9.489257080078126 0.37440673828125015 Q 9.485349609375001 0.35238281250000014 9.481086914062502 0.3374633789062501 L 9.481086914062502 0.33462158203125014 L 9.645200683593751 0.33462158203125014 L 9.645200683593751 0.3374633789062501 Q 9.639517089843752 0.3538037109375002 9.635609619140627 0.3772485351562501 Q 9.631702148437501 0.40069335937500017 9.629570800781252 0.4376367187500001 Q 9.655857421875002 0.4156127929687502 9.684275390625002 0.39429931640625016 Q 9.712693359375002 0.3729858398437501 9.742532226562501 0.35664550781250015 Q 9.772371093750001 0.3403051757812502 9.803275634765626 0.33035888671875013 Q 9.83418017578125 0.3204125976562502 9.865439941406251 0.3204125976562502 Q 9.884622070312501 0.3204125976562502 9.898831054687502 0.3221887207031251 Q 9.913040039062501 0.3239648437500001 9.9244072265625 0.3271618652343752 Q 9.935774414062502 0.33035888671875013 9.945010253906252 0.33426635742187516 Q 9.954246093750001 0.3381738281250002 9.962771484375002 0.3417260742187501 L 9.927959472656251 0.4774218750000001 L 9.915881835937501 0.47458007812500014 Q 9.907356445312502 0.44332031250000015 9.883911621093752 0.4244934082031252 Q 9.860466796875002 0.40566650390625014 9.819971191406252 0.40566650390625014 Q 9.797947265625002 0.40566650390625014 9.773791992187501 0.4134814453125002 Q 9.749636718750002 0.42129638671875014 9.724770996093751 0.4351501464843751 Q 9.699905273437501 0.4490039062500002 9.675039550781252 0.4671203613281252 Q 9.650173828125002 0.48523681640625016 9.626729003906252 0.5051293945312502 Q 9.625308105468752 0.5257324218750001 9.625308105468752 0.5498876953125001 Q 9.625308105468752 0.5740429687500002 9.625308105468752 0.6010400390625001 L 9.625308105468752 0.7843359375000002 Q 9.625308105468752 0.8447241210937502 9.626729003906252 0.8898376464843751 Q 9.628149902343752 0.9349511718750002 9.630991699218752 0.9676318359375001 Q 9.633833496093752 1.0003125000000002 9.6373857421875 1.0223364257812502 Q 9.640937988281252 1.0443603515625002 9.645200683593751 1.05927978515625 L 9.645200683593751 1.0621215820312502 L 9.481086914062502 1.0621215820312502 L 9.481086914062502 1.05927978515625 Q 9.485349609375001 1.0443603515625002 9.489257080078126 1.0223364257812502 Q 9.493164550781252 1.0003125000000002 9.495651123046876 0.9676318359375001 Q 9.4981376953125 0.9349511718750002 9.499913818359376 0.8898376464843751 Q 9.501689941406251 0.8447241210937502 9.501689941406251 0.7843359375000002 L 9.501689941406251 0.6124072265625001 M 10.135495898437501 0.6124072265625001 Q 10.135495898437501 0.5520190429687502 10.133719775390626 0.5069055175781252 Q 10.131943652343752 0.4617919921875001 10.129457080078126 0.4291113281250002 Q 10.126970507812501 0.39643066406250016 10.123063037109377 0.37440673828125015 Q 10.119155566406251 0.35238281250000014 10.114892871093751 0.3374633789062501 L 10.114892871093751 0.33462158203125014 L 10.279006640625001 0.33462158203125014 L 10.279006640625001 0.3374633789062501 Q 10.274743945312501 0.35238281250000014 10.271191699218752 0.37440673828125015 Q 10.267639453125001 0.39643066406250016 10.264797656250002 0.4291113281250002 Q 10.261955859375002 0.4617919921875001 10.260534960937502 0.5069055175781252 Q 10.259114062500002 0.5520190429687502 10.259114062500002 0.6124072265625001 L 10.259114062500002 0.7843359375000002 Q 10.259114062500002 0.8447241210937502 10.260534960937502 0.8898376464843751 Q 10.261955859375002 0.9349511718750002 10.264797656250002 0.9676318359375001 Q 10.267639453125001 1.0003125000000002 10.271191699218752 1.0223364257812502 Q 10.274743945312501 1.0443603515625002 10.279006640625001 1.05927978515625 L 10.279006640625001 1.0621215820312502 L 10.114892871093751 1.0621215820312502 L 10.114892871093751 1.05927978515625 Q 10.119155566406251 1.0443603515625002 10.123063037109377 1.0223364257812502 Q 10.126970507812501 1.0003125000000002 10.129457080078126 0.9676318359375001 Q 10.131943652343752 0.9349511718750002 10.133719775390626 0.8898376464843751 Q 10.135495898437501 0.8447241210937502 10.135495898437501 0.7843359375000002 L 10.135495898437501 0.6124072265625001 M 10.12057646484375 0.11935546875000014 Q 10.12057646484375 0.10372558593750014 10.126615283203126 0.08987182617187517 Q 10.132654101562501 0.07601806640625008 10.142600390625 0.06571655273437516 Q 10.152546679687502 0.055415039062500115 10.166400439453126 0.049376220703125195 Q 10.180254199218751 0.04333740234375005 10.196594531250001 0.04333740234375005 Q 10.212934863281252 0.04333740234375005 10.226788623046877 0.049376220703125195 Q 10.240642382812501 0.055415039062500115 10.250943896484376 0.06571655273437516 Q 10.261245410156251 0.07601806640625008 10.267284228515626 0.08987182617187517 Q 10.273323046875001 0.10372558593750014 10.273323046875001 0.11935546875000014 Q 10.273323046875001 0.15203613281250017 10.251299121093751 0.17406005859375018 Q 10.229275195312502 0.1960839843750002 10.196594531250001 0.1960839843750002 Q 10.180254199218751 0.1960839843750002 10.166400439453126 0.19004516601562516 Q 10.152546679687502 0.18400634765625012 10.142600390625 0.17370483398437508 Q 10.132654101562501 0.16340332031250016 10.126615283203126 0.14954956054687518 Q 10.12057646484375 0.1356958007812501 10.12057646484375 0.11935546875000014 M 10.8652125 0.3218334960937501 Q 10.894340917968751 0.3218334960937501 10.9234693359375 0.3268066406250001 Q 10.95259775390625 0.3317797851562502 10.9803052734375 0.34101562500000016 Q 11.008012792968751 0.35025146484375014 11.032878515625 0.36375000000000013 Q 11.05774423828125 0.3772485351562501 11.077636816406251 0.39429931640625016 L 11.077636816406251 0.2777856445312501 Q 11.077636816406251 0.21739746093750012 11.076215917968751 0.17228393554687516 Q 11.074795019531251 0.12717041015625008 11.071953222656251 0.09448974609375016 Q 11.06911142578125 0.06180908203125002 11.0655591796875 0.03978515625000023 Q 11.06200693359375 0.017761230468750222 11.05774423828125 0.00284179687500008 L 11.05774423828125 2.220446049250313e-16 L 11.2218580078125 2.220446049250313e-16 L 11.2218580078125 0.00284179687500008 Q 11.2175953125 0.017761230468750222 11.213687841796876 0.03978515625000023 Q 11.20978037109375 0.06180908203125002 11.207293798828125 0.09448974609375016 Q 11.204807226562501 0.12717041015625008 11.203031103515626 0.17228393554687516 Q 11.20125498046875 0.21739746093750012 11.20125498046875 0.2777856445312501 L 11.20125498046875 0.7843359375000002 Q 11.20125498046875 0.8447241210937502 11.203031103515626 0.8898376464843751 Q 11.204807226562501 0.9349511718750002 11.207293798828125 0.9676318359375001 Q 11.20978037109375 1.0003125000000002 11.213687841796876 1.0223364257812502 Q 11.2175953125 1.0443603515625002 11.2218580078125 1.05927978515625 L 11.2218580078125 1.0621215820312502 L 11.06484873046875 1.0621215820312502 L 11.06484873046875 1.05927978515625 Q 11.066980078125 1.0535961914062502 11.0684009765625 1.0425842285156253 Q 11.069821875 1.0315722656250002 11.071953222656251 1.01523193359375 Q 11.0357203125 1.0379663085937503 10.98101572265625 1.0564379882812502 Q 10.9263111328125 1.0749096679687502 10.8538453125 1.0749096679687502 Q 10.76930185546875 1.0749096679687502 10.700388281250001 1.0486230468750002 Q 10.63147470703125 1.0223364257812502 10.582808935546876 0.9733154296875002 Q 10.5341431640625 0.9242944335937502 10.507856542968751 0.8543151855468751 Q 10.481569921875 0.7843359375000002 10.481569921875 0.6969506835937502 Q 10.481569921875 0.6166699218750001 10.509987890625 0.5481115722656251 Q 10.538405859375 0.4795532226562501 10.589558203125 0.4291113281250002 Q 10.640710546875 0.37866943359375016 10.71104501953125 0.35025146484375014 Q 10.7813794921875 0.3218334960937501 10.8652125 0.3218334960937501 M 11.077636816406251 0.5193383789062501 Q 11.04921884765625 0.4447412109375002 10.996290380859376 0.4092187500000002 Q 10.9433619140625 0.3736962890625002 10.87729013671875 0.3736962890625002 Q 10.82187509765625 0.3736962890625002 10.77498544921875 0.3932336425781251 Q 10.72809580078125 0.4127709960937501 10.6947046875 0.44971435546875016 Q 10.66131357421875 0.4866577148437502 10.642486669921876 0.5402966308593752 Q 10.623659765625 0.5939355468750002 10.623659765625 0.6621386718750002 Q 10.623659765625 0.7388671875000001 10.640710546875 0.8049389648437502 Q 10.657761328125 0.8710107421875002 10.690797216796875 0.9196765136718752 Q 10.723833105468751 0.9683422851562502 10.772854101562501 0.9956945800781252 Q 10.82187509765625 1.0230468750000001 10.88581552734375 1.0230468750000001 Q 10.919206640625001 1.0230468750000001 10.94833505859375 1.01523193359375 Q 10.9774634765625 1.0074169921875002 11.00161875 0.9953393554687502 Q 11.025774023437501 0.9832617187500001 11.044245703125 0.9686975097656252 Q 11.062717382812501 0.9541333007812501 11.074795019531251 0.9399243164062502 Q 11.076215917968751 0.9093750000000002 11.0769263671875 0.8703002929687502 Q 11.077636816406251 0.8312255859375002 11.077636816406251 0.7843359375000002 L 11.077636816406251 0.5193383789062501" fill="#193b29" fill-rule="nonzero"></path></g><g></g></g><defs><clipPath id="SvgjsClipPath45538"><path d=" M -2.6350959415833355 -16.370897919342383 h 16.580856043322925 v 16.295897919342384 h -16.580856043322925 Z"></path></clipPath><clipPath id="SvgjsClipPath45533497405c0-1450-4cff-84fb-b7529ad6bc9d"><path d=" M -2.6350959415833355 -16.370897919342383 L 13.94576010173959 -16.370897919342383 L 13.94576010173959 -0.07499999999999929 L -2.6350959415833355 -0.07499999999999929 Z"></path></clipPath></defs></svg>