<?xml version="1.0" encoding="UTF-8"?>
<svg xmlns="http://www.w3.org/2000/svg" xmlns:xlink="http://www.w3.org/1999/xlink" width="67px" height="67px" viewBox="0 0 67 67" version="1.1">
<g id="surface1">
<path style=" stroke:none;fill-rule:nonzero;fill:rgb(94.117647%,38.039216%,57.254905%);fill-opacity:1;" d="M 30.386719 9.65625 C 30.769531 9.644531 31.148438 9.636719 31.539062 9.625 C 34.550781 9.605469 37.082031 10.039062 39.574219 11.867188 C 41.390625 14 42.058594 15.800781 41.875 18.609375 C 41.300781 22.75 38.480469 25.609375 35.386719 28.214844 C 31.441406 30.960938 26.105469 31.78125 21.402344 31.171875 C 19.269531 30.484375 18 29.792969 16.75 27.917969 C 16.75 27.457031 16.75 26.996094 16.75 26.519531 C 17.046875 26.65625 17.34375 26.789062 17.652344 26.929688 C 22.339844 28.648438 25.996094 28.5 30.636719 26.382812 C 33.410156 24.828125 35.78125 22.890625 37.222656 20.007812 C 37.410156 18.585938 37.445312 17.238281 37.222656 15.820312 C 35.777344 14.328125 33.910156 14.113281 31.902344 13.964844 C 24.699219 13.929688 16.738281 17.609375 11.457031 22.40625 C 9.378906 24.574219 8.152344 26.289062 7.910156 29.3125 C 8.671875 32.214844 10.339844 33.882812 12.5625 35.828125 C 12.917969 36.136719 13.273438 36.449219 13.640625 36.773438 C 15.425781 38.488281 15.425781 38.488281 17.679688 39 C 20.59375 37.800781 23.082031 36.199219 25.398438 34.074219 C 26.90625 32.753906 28.3125 33 30.242188 33.035156 C 30.472656 34.648438 30.472656 34.648438 30.707031 36.292969 C 31.15625 36.378906 31.15625 36.378906 31.609375 36.464844 C 31.925781 36.5625 32.242188 36.65625 32.570312 36.757812 C 33.285156 38.1875 32.738281 39.246094 32.367188 40.769531 C 32.230469 41.324219 32.097656 41.875 31.960938 42.445312 C 31.855469 42.871094 31.75 43.296875 31.640625 43.734375 C 32.394531 42 33.152344 40.265625 33.90625 38.53125 C 34.121094 38.039062 34.335938 37.550781 34.554688 37.042969 C 34.761719 36.566406 34.96875 36.09375 35.183594 35.601562 C 35.375 35.167969 35.5625 34.730469 35.757812 34.28125 C 36.265625 33.097656 36.75 31.90625 37.222656 30.707031 C 38.605469 30.707031 39.984375 30.707031 41.410156 30.707031 C 41.351562 31.238281 41.351562 31.238281 41.292969 31.777344 C 41.246094 32.242188 41.195312 32.703125 41.148438 33.179688 C 41.097656 33.640625 41.050781 34.097656 41 34.570312 C 40.867188 35.871094 40.867188 35.871094 41.410156 37.222656 C 43.132812 34.5 44.578125 31.90625 45.597656 28.847656 C 46.824219 28.847656 48.054688 28.847656 49.320312 28.847656 C 49.800781 30.292969 49.757812 30.824219 49.523438 32.277344 C 49.292969 34.039062 49.375 35.160156 50.25 36.757812 C 50.539062 36.683594 50.824219 36.613281 51.121094 36.535156 C 54.527344 35.753906 57.296875 35.636719 60.601562 36.84375 C 62.148438 37.863281 63.390625 38.808594 64.207031 40.480469 C 64.523438 42.09375 64.558594 43.519531 64.207031 45.132812 C 63.132812 46.351562 63.132812 46.351562 61.882812 46.992188 C 61.421875 46.992188 60.960938 46.992188 60.484375 46.992188 C 60.714844 46.300781 60.714844 46.300781 60.953125 45.597656 C 61.257812 45.597656 61.566406 45.597656 61.882812 45.597656 C 62.289062 44.011719 62.460938 43.097656 61.851562 41.554688 C 60.722656 40.203125 59.792969 39.746094 58.160156 39.082031 C 56.894531 38.988281 55.75 38.949219 54.496094 38.996094 C 54.015625 39.003906 54.015625 39.003906 53.523438 39.015625 C 52.742188 39.03125 51.960938 39.054688 51.179688 39.082031 C 51.265625 39.59375 51.355469 40.105469 51.445312 40.632812 C 51.644531 42.339844 51.644531 42.339844 51.152344 43.589844 C 50.023438 44.9375 49.019531 45.714844 47.457031 46.527344 C 45.65625 46.644531 45.65625 46.644531 44.203125 46.527344 C 43.816406 45.21875 43.554688 44.191406 44.070312 42.890625 C 44.929688 41.382812 45.910156 39.972656 46.992188 38.617188 C 46.53125 37.695312 46.070312 36.777344 45.597656 35.828125 C 44.117188 38.011719 43.105469 39.734375 43.242188 42.425781 C 43.320312 44.085938 43.265625 44.679688 42.574219 46.265625 C 41.097656 47.777344 39.753906 48.457031 37.6875 48.855469 C 36.058594 48.707031 36.058594 48.707031 34.894531 48.390625 C 34.960938 45.722656 36.144531 44.578125 37.96875 42.816406 C 38.746094 41.902344 38.746094 41.902344 38.511719 40.683594 C 38.246094 39.839844 37.96875 38.996094 37.6875 38.152344 C 37.554688 38.410156 37.425781 38.664062 37.289062 38.925781 C 36.6875 40.09375 36.082031 41.261719 35.476562 42.425781 C 35.167969 43.03125 35.167969 43.03125 34.851562 43.644531 C 32.140625 48.851562 32.140625 48.851562 30.214844 49.785156 C 29.3125 49.785156 29.3125 49.785156 28.527344 49.175781 C 27.917969 48.390625 27.917969 48.390625 27.453125 47.457031 C 27.203125 47.917969 26.953125 48.378906 26.695312 48.855469 C 25.589844 50.25 25.589844 50.25 24.164062 50.511719 C 22.796875 50.25 22.796875 50.25 21.984375 49.753906 C 20.222656 47.023438 20.359375 44.078125 20.472656 40.945312 C 19.710938 41.460938 19.710938 41.460938 19.078125 42.339844 C 18.976562 43.707031 18.976562 43.707031 19.105469 45.21875 C 19.15625 48 18.960938 49.902344 17.214844 52.109375 C 14.734375 54.671875 12.964844 55.890625 9.335938 56.007812 C 6.710938 55.972656 6.710938 55.972656 5.234375 54.933594 C 4.441406 52.988281 4.300781 51.386719 4.652344 49.320312 C 6.40625 45.664062 9.980469 43.238281 13.492188 41.410156 C 12.25 40.085938 10.929688 39.003906 9.457031 37.945312 C 6.394531 35.714844 3.332031 33.472656 2.566406 29.542969 C 2.378906 26.039062 3.464844 23.757812 5.671875 21.113281 C 12.003906 14.324219 21.0625 9.710938 30.386719 9.65625 Z M 27.246094 36.441406 C 24.675781 39.410156 24.058594 41.710938 24.195312 45.597656 C 24.5 45.75 24.808594 45.90625 25.125 46.0625 C 26.761719 42.71875 27.984375 39.449219 28.847656 35.828125 C 27.878906 35.722656 27.878906 35.722656 27.246094 36.441406 Z M 47.921875 40.945312 C 47.175781 42.050781 47.175781 42.050781 46.527344 43.269531 C 46.679688 43.578125 46.835938 43.886719 46.992188 44.203125 C 47.75 43.359375 47.75 43.359375 48.390625 42.339844 C 48.234375 41.878906 48.082031 41.417969 47.921875 40.945312 Z M 10.375 47.285156 C 9.355469 48.40625 8.859375 49.132812 8.695312 50.65625 C 8.765625 51.148438 8.765625 51.148438 8.839844 51.644531 C 9.867188 52.054688 9.867188 52.054688 11.167969 52.109375 C 13.460938 50.894531 15.117188 49.328125 16.285156 46.992188 C 16.316406 46.355469 16.324219 45.714844 16.3125 45.074219 C 16.304688 44.480469 16.292969 43.882812 16.285156 43.269531 C 14.101562 43.269531 11.890625 45.835938 10.375 47.285156 Z M 10.375 47.285156 "/>
</g>
</svg>
