<?xml version="1.0" encoding="UTF-8"?>
<svg xmlns="http://www.w3.org/2000/svg" xmlns:xlink="http://www.w3.org/1999/xlink" width="150px" height="150px" viewBox="0 0 150 150" version="1.1">
<g id="surface1">
<path style=" stroke:none;fill-rule:nonzero;fill:rgb(0%,47.843137%,80.000001%);fill-opacity:1;" d="M 0 75 L 0 0 L 150 0 L 150 150 L 0 150 "/>
<path style=" stroke:none;fill-rule:nonzero;fill:rgb(100%,100%,100%);fill-opacity:1;" d="M 32.886719 75.261719 L 32.886719 81.375 L 52.386719 81.375 L 52.386719 136.875 L 66.226562 136.875 L 66.226562 81.375 L 85.726562 81.375 L 85.726562 75.375 C 85.726562 72 85.726562 69.261719 85.574219 69.1875 C 85.574219 69.074219 73.6875 69.039062 59.25 69.039062 L 33 69.148438 L 33 75.300781 Z M 120.523438 69 C 124.351562 69.898438 127.273438 71.625 129.898438 74.363281 C 131.289062 75.863281 133.351562 78.488281 133.5 79.164062 C 133.5 79.386719 127.011719 83.773438 123.074219 86.210938 C 122.925781 86.324219 122.324219 85.6875 121.726562 84.710938 C 119.773438 81.9375 117.789062 80.738281 114.675781 80.511719 C 110.175781 80.210938 107.175781 82.574219 107.175781 86.511719 C 107.175781 87.710938 107.398438 88.386719 107.851562 89.363281 C 108.863281 91.425781 110.738281 92.664062 116.550781 95.210938 C 127.273438 99.824219 131.925781 102.863281 134.738281 107.210938 C 137.925781 112.085938 138.636719 119.738281 136.5 125.476562 C 134.101562 131.738281 128.25 135.976562 119.886719 137.363281 C 117.261719 137.8125 111.261719 137.738281 108.449219 137.25 C 102.449219 136.125 96.710938 133.125 93.1875 129.261719 C 91.800781 127.761719 89.136719 123.75 89.289062 123.488281 L 90.710938 122.585938 L 96.335938 119.324219 L 100.574219 116.851562 L 101.550781 118.164062 C 102.789062 120.113281 105.5625 122.738281 107.175781 123.636719 C 112.050781 126.148438 118.574219 125.8125 121.800781 122.886719 C 123.1875 121.613281 123.789062 120.261719 123.789062 118.386719 C 123.789062 116.664062 123.523438 115.875 122.664062 114.5625 C 121.460938 112.914062 119.0625 111.5625 112.3125 108.5625 C 104.550781 105.261719 101.25 103.164062 98.175781 99.9375 C 96.414062 97.988281 94.800781 94.949219 94.050781 92.4375 C 93.488281 90.261719 93.300781 84.9375 93.824219 82.800781 C 95.4375 75.300781 101.101562 70.050781 109.199219 68.550781 C 111.824219 68.023438 118.011719 68.25 120.601562 68.925781 Z M 120.523438 69 "/>
</g>
</svg>
